ply
format ascii 1.0
element vertex 539
property float x
property float y
property float z
end_header
10 10 0
10 13 0
10 16 0
10 19 0
10 22 0
10 25 0
10 28 0
13 10 0
13 13 0
13 16 0
13 19 0
13 22 0
13 25 0
13 28 0
16 10 0
16 13 0
16 16 0
16 19 0
16 22 0
16 25 0
16 28 0
19 10 0
19 13 0
19 16 0
19 19 0
19 22 0
19 25 0
19 28 0
22 10 0
22 13 0
22 16 0
22 19 0
22 22 0
22 25 0
22 28 0
25 10 0
25 13 0
25 16 0
25 19 0
25 22 0
25 25 0
25 28 0
28 10 0
28 13 0
28 16 0
28 19 0
28 22 0
28 25 0
28 28 0
10 10 3
10 13 3
10 16 3
10 19 3
10 22 3
10 25 3
10 28 3
13 10 3
13 13 3
13 16 3
13 19 3
13 22 3
13 25 3
13 28 3
16 10 3
16 13 3
16 16 3
16 19 3
16 22 3
16 25 3
16 28 3
19 10 3
19 13 3
19 16 3
19 19 3
19 22 3
19 25 3
19 28 3
22 10 3
22 13 3
22 16 3
22 19 3
22 22 3
22 25 3
22 28 3
25 10 3
25 13 3
25 16 3
25 19 3
25 22 3
25 25 3
25 28 3
28 10 3
28 13 3
28 16 3
28 19 3
28 22 3
28 25 3
28 28 3
10 10 6
10 13 6
10 16 6
10 19 6
10 22 6
10 25 6
10 28 6
13 10 6
13 13 6
13 16 6
13 19 6
13 22 6
13 25 6
13 28 6
16 10 6
16 13 6
16 16 6
16 19 6
16 22 6
16 25 6
16 28 6
19 10 6
19 13 6
19 16 6
19 19 6
19 22 6
19 25 6
19 28 6
22 10 6
22 13 6
22 16 6
22 19 6
22 22 6
22 25 6
22 28 6
25 10 6
25 13 6
25 16 6
25 19 6
25 22 6
25 25 6
25 28 6
28 10 6
28 13 6
28 16 6
28 19 6
28 22 6
28 25 6
28 28 6
10 10 9
10 13 9
10 16 9
10 19 9
10 22 9
10 25 9
10 28 9
13 10 9
13 13 9
13 16 9
13 19 9
13 22 9
13 25 9
13 28 9
16 10 9
16 13 9
16 16 9
16 19 9
16 22 9
16 25 9
16 28 9
19 10 9
19 13 9
19 16 9
19 19 9
19 22 9
19 25 9
19 28 9
22 10 9
22 13 9
22 16 9
22 19 9
22 22 9
22 25 9
22 28 9
25 10 9
25 13 9
25 16 9
25 19 9
25 22 9
25 25 9
25 28 9
28 10 9
28 13 9
28 16 9
28 19 9
28 22 9
28 25 9
28 28 9
10 10 12
10 13 12
10 16 12
10 19 12
10 22 12
10 25 12
10 28 12
13 10 12
13 13 12
13 16 12
13 19 12
13 22 12
13 25 12
13 28 12
16 10 12
16 13 12
16 16 12
16 19 12
16 22 12
16 25 12
16 28 12
19 10 12
19 13 12
19 16 12
19 19 12
19 22 12
19 25 12
19 28 12
22 10 12
22 13 12
22 16 12
22 19 12
22 22 12
22 25 12
22 28 12
25 10 12
25 13 12
25 16 12
25 19 12
25 22 12
25 25 12
25 28 12
28 10 12
28 13 12
28 16 12
28 19 12
28 22 12
28 25 12
28 28 12
10 10 15
10 13 15
10 16 15
10 19 15
10 22 15
10 25 15
10 28 15
13 10 15
13 13 15
13 16 15
13 19 15
13 22 15
13 25 15
13 28 15
16 10 15
16 13 15
16 16 15
16 19 15
16 22 15
16 25 15
16 28 15
19 10 15
19 13 15
19 16 15
19 19 15
19 22 15
19 25 15
19 28 15
22 10 15
22 13 15
22 16 15
22 19 15
22 22 15
22 25 15
22 28 15
25 10 15
25 13 15
25 16 15
25 19 15
25 22 15
25 25 15
25 28 15
28 10 15
28 13 15
28 16 15
28 19 15
28 22 15
28 25 15
28 28 15
10 10 18
10 13 18
10 16 18
10 19 18
10 22 18
10 25 18
10 28 18
13 10 18
13 13 18
13 16 18
13 19 18
13 22 18
13 25 18
13 28 18
16 10 18
16 13 18
16 16 18
16 19 18
16 22 18
16 25 18
16 28 18
19 10 18
19 13 18
19 16 18
19 19 18
19 22 18
19 25 18
19 28 18
22 10 18
22 13 18
22 16 18
22 19 18
22 22 18
22 25 18
22 28 18
25 10 18
25 13 18
25 16 18
25 19 18
25 22 18
25 25 18
25 28 18
28 10 18
28 13 18
28 16 18
28 19 18
28 22 18
28 25 18
28 28 18
10 10 21
10 13 21
10 16 21
10 19 21
10 22 21
10 25 21
10 28 21
13 10 21
13 13 21
13 16 21
13 19 21
13 22 21
13 25 21
13 28 21
16 10 21
16 13 21
16 16 21
16 19 21
16 22 21
16 25 21
16 28 21
19 10 21
19 13 21
19 16 21
19 19 21
19 22 21
19 25 21
19 28 21
22 10 21
22 13 21
22 16 21
22 19 21
22 22 21
22 25 21
22 28 21
25 10 21
25 13 21
25 16 21
25 19 21
25 22 21
25 25 21
25 28 21
28 10 21
28 13 21
28 16 21
28 19 21
28 22 21
28 25 21
28 28 21
10 10 24
10 13 24
10 16 24
10 19 24
10 22 24
10 25 24
10 28 24
13 10 24
13 13 24
13 16 24
13 19 24
13 22 24
13 25 24
13 28 24
16 10 24
16 13 24
16 16 24
16 19 24
16 22 24
16 25 24
16 28 24
19 10 24
19 13 24
19 16 24
19 19 24
19 22 24
19 25 24
19 28 24
22 10 24
22 13 24
22 16 24
22 19 24
22 22 24
22 25 24
22 28 24
25 10 24
25 13 24
25 16 24
25 19 24
25 22 24
25 25 24
25 28 24
28 10 24
28 13 24
28 16 24
28 19 24
28 22 24
28 25 24
28 28 24
10 10 27
10 13 27
10 16 27
10 19 27
10 22 27
10 25 27
10 28 27
13 10 27
13 13 27
13 16 27
13 19 27
13 22 27
13 25 27
13 28 27
16 10 27
16 13 27
16 16 27
16 19 27
16 22 27
16 25 27
16 28 27
19 10 27
19 13 27
19 16 27
19 19 27
19 22 27
19 25 27
19 28 27
22 10 27
22 13 27
22 16 27
22 19 27
22 22 27
22 25 27
22 28 27
25 10 27
25 13 27
25 16 27
25 19 27
25 22 27
25 25 27
25 28 27
28 10 27
28 13 27
28 16 27
28 19 27
28 22 27
28 25 27
28 28 27
10 10 30
10 13 30
10 16 30
10 19 30
10 22 30
10 25 30
10 28 30
13 10 30
13 13 30
13 16 30
13 19 30
13 22 30
13 25 30
13 28 30
16 10 30
16 13 30
16 16 30
16 19 30
16 22 30
16 25 30
16 28 30
19 10 30
19 13 30
19 16 30
19 19 30
19 22 30
19 25 30
19 28 30
22 10 30
22 13 30
22 16 30
22 19 30
22 22 30
22 25 30
22 28 30
25 10 30
25 13 30
25 16 30
25 19 30
25 22 30
25 25 30
25 28 30
28 10 30
28 13 30
28 16 30
28 19 30
28 22 30
28 25 30
28 28 30
